<svg width="21" height="21" viewBox="0 0 21 21" fill="none" xmlns="http://www.w3.org/2000/svg">
<g id="vuesax/outline/call">
<g id="call">
<path id="Vector" d="M14.6104 19.6674C13.6687 19.6674 12.677 19.4424 11.652 19.0091C10.652 18.5841 9.64369 18.0007 8.66035 17.2924C7.68535 16.5757 6.74369 15.7757 5.85202 14.9007C4.96869 14.0091 4.16869 13.0674 3.46035 12.1007C2.74369 11.1007 2.16868 10.1007 1.76035 9.13407C1.32702 8.10073 1.11035 7.10073 1.11035 6.15907C1.11035 5.50907 1.22702 4.8924 1.45202 4.3174C1.68535 3.72573 2.06035 3.17573 2.56868 2.70073C3.21035 2.0674 3.94369 1.75073 4.72702 1.75073C5.05202 1.75073 5.38535 1.82573 5.66868 1.95907C5.99368 2.10907 6.26868 2.33407 6.46869 2.63407L8.40202 5.35907C8.57702 5.60073 8.71035 5.83407 8.80202 6.0674C8.91035 6.3174 8.96869 6.5674 8.96869 6.80907C8.96869 7.12573 8.87702 7.43407 8.70202 7.72573C8.57702 7.95073 8.38535 8.1924 8.14368 8.43407L7.57702 9.02573C7.58535 9.05073 7.59369 9.0674 7.60202 9.08407C7.70202 9.25907 7.90202 9.55907 8.28535 10.0091C8.69369 10.4757 9.07702 10.9007 9.46035 11.2924C9.95202 11.7757 10.3604 12.1591 10.7437 12.4757C11.2187 12.8757 11.527 13.0757 11.7104 13.1674L11.6937 13.2091L12.302 12.6091C12.5604 12.3507 12.8104 12.1591 13.052 12.0341C13.5104 11.7507 14.0937 11.7007 14.677 11.9424C14.8937 12.0341 15.127 12.1591 15.377 12.3341L18.1437 14.3007C18.452 14.5091 18.677 14.7757 18.8104 15.0924C18.9354 15.4091 18.9937 15.7007 18.9937 15.9924C18.9937 16.3924 18.902 16.7924 18.727 17.1674C18.552 17.5424 18.3354 17.8674 18.0604 18.1674C17.5854 18.6924 17.0687 19.0674 16.4687 19.3091C15.8937 19.5424 15.2687 19.6674 14.6104 19.6674ZM4.72702 3.00073C4.26869 3.00073 3.84368 3.20073 3.43535 3.60073C3.05202 3.95907 2.78535 4.35073 2.61868 4.77573C2.44368 5.20907 2.36035 5.6674 2.36035 6.15907C2.36035 6.93407 2.54369 7.77573 2.91035 8.6424C3.28535 9.52573 3.81035 10.4424 4.47702 11.3591C5.14368 12.2757 5.90202 13.1674 6.73535 14.0091C7.56869 14.8341 8.46868 15.6007 9.39369 16.2757C10.2937 16.9341 11.2187 17.4674 12.1354 17.8507C13.5604 18.4591 14.8937 18.6007 15.9937 18.1424C16.4187 17.9674 16.7937 17.7007 17.1354 17.3174C17.327 17.1091 17.477 16.8841 17.602 16.6174C17.702 16.4091 17.752 16.1924 17.752 15.9757C17.752 15.8424 17.727 15.7091 17.6604 15.5591C17.6354 15.5091 17.5854 15.4174 17.427 15.3091L14.6604 13.3424C14.4937 13.2257 14.3437 13.1424 14.202 13.0841C14.0187 13.0091 13.9437 12.9341 13.6604 13.1091C13.4937 13.1924 13.3437 13.3174 13.177 13.4841L12.5437 14.1091C12.2187 14.4257 11.7187 14.5007 11.3354 14.3591L11.1104 14.2591C10.7687 14.0757 10.3687 13.7924 9.92702 13.4174C9.52702 13.0757 9.09369 12.6757 8.56869 12.1591C8.16035 11.7424 7.75202 11.3007 7.32702 10.8091C6.93535 10.3507 6.65202 9.95907 6.47702 9.63407L6.37702 9.38407C6.32702 9.1924 6.31035 9.08407 6.31035 8.9674C6.31035 8.6674 6.41868 8.40073 6.62702 8.1924L7.25202 7.5424C7.41868 7.37573 7.54368 7.2174 7.62702 7.07573C7.69369 6.9674 7.71869 6.87573 7.71869 6.7924C7.71869 6.72573 7.69369 6.62573 7.65202 6.52573C7.59369 6.3924 7.50202 6.2424 7.38535 6.08407L5.45202 3.35073C5.36869 3.23407 5.26869 3.15073 5.14369 3.0924C5.01035 3.03407 4.86869 3.00073 4.72702 3.00073ZM11.6937 13.2174L11.5604 13.7841L11.7854 13.2007C11.7437 13.1924 11.7104 13.2007 11.6937 13.2174Z" fill="#292D32"/>
</g>
</g>
</svg>
