<svg width="20" height="21" viewBox="0 0 20 21" fill="none" xmlns="http://www.w3.org/2000/svg">
<g id="facebook.svg" clip-path="url(#clip0_201_2909)">
<path id="Vector" d="M19.6875 10.9446C19.6875 5.59302 15.3516 1.25708 10 1.25708C4.64844 1.25708 0.3125 5.59302 0.3125 10.9446C0.3125 15.7797 3.85508 19.7875 8.48633 20.5149V13.745H6.02539V10.9446H8.48633V8.8102C8.48633 6.38247 9.93164 5.04146 12.1453 5.04146C13.2055 5.04146 14.3141 5.23052 14.3141 5.23052V7.61333H13.0922C11.8891 7.61333 11.5137 8.3602 11.5137 9.12622V10.9446H14.2004L13.7707 13.745H11.5137V20.5149C16.1449 19.7875 19.6875 15.7797 19.6875 10.9446Z" fill="#28282A"/>
</g>
<defs>
<clipPath id="clip0_201_2909">
<rect width="20" height="20" fill="white" transform="translate(0 0.94458)"/>
</clipPath>
</defs>
</svg>
