<svg width="21" height="21" viewBox="0 0 21 21" fill="none" xmlns="http://www.w3.org/2000/svg">
<g id="Frame" clip-path="url(#clip0_201_1521)">
<path id="Vector" d="M11.9854 17.3122V19.6559C11.9854 20.0875 11.6356 20.4372 11.2041 20.4372H9.6416C8.34918 20.4372 7.29785 19.3859 7.29785 18.0934V17.6999C7.29785 17.5965 7.2327 17.5026 7.13168 17.461L7.12146 17.4567C7.12009 17.4562 7.11871 17.4556 7.11749 17.455C7.01602 17.4129 6.90326 17.433 6.83017 17.5063L6.55185 17.7846C5.63815 18.6983 4.15118 18.6983 3.23734 17.7846L2.68481 17.2321C2.24216 16.7894 1.99847 16.2009 1.99847 15.5748C1.99847 14.9488 2.24216 14.3602 2.68497 13.9176L2.96313 13.6393C3.03622 13.5662 3.05637 13.4534 3.0144 13.3521L3.008 13.3368C2.9668 13.2367 2.87296 13.1716 2.7695 13.1716H2.37598C1.08356 13.1716 0.0322266 12.1202 0.0322266 10.8278V10.0466C0.0322266 8.75415 1.08356 7.70282 2.37598 7.70282H2.7695C2.87296 7.70282 2.9668 7.63766 3.00845 7.5368L3.0144 7.52261C3.05652 7.42099 3.03638 7.30838 2.96313 7.23514L2.68497 6.95697C2.24231 6.51431 1.99847 5.92578 1.99847 5.29971C1.99847 4.67365 2.24231 4.08496 2.68497 3.6423L3.23734 3.08994C3.67999 2.64728 4.26852 2.40344 4.89459 2.40344C5.52066 2.40344 6.10919 2.64728 6.552 3.08994L6.83017 3.3681C6.90341 3.44135 7.01617 3.46133 7.11749 3.41937C7.11871 3.41876 7.12009 3.4183 7.12146 3.41769L7.13443 3.41235C7.2327 3.37177 7.298 3.27792 7.298 3.17447V2.78094C7.298 1.48853 8.34933 0.437195 9.64175 0.437195H11.2043C11.6356 0.437195 11.9855 0.786926 11.9855 1.21844V3.56219C11.9855 3.99371 11.6356 4.34344 11.2043 4.34344C10.7727 4.34344 10.423 3.99371 10.423 3.56219V1.99969H9.64175C9.21085 1.99969 8.8605 2.35019 8.8605 2.78094V3.17447C8.8605 3.91284 8.41602 4.57355 7.7283 4.85751L7.71564 4.86285C7.02838 5.14789 6.24728 4.99484 5.72543 4.47299L5.44711 4.19482C5.29956 4.04712 5.10333 3.96594 4.89474 3.96594C4.686 3.96594 4.48993 4.04712 4.34238 4.19482L3.78986 4.74719C3.6423 4.89474 3.56113 5.09097 3.56113 5.29971C3.56113 5.5083 3.6423 5.70453 3.78986 5.85208L4.06802 6.13025C4.59018 6.6524 4.74307 7.43411 4.45743 8.12183L4.45316 8.13235C4.16858 8.82083 3.50803 9.26532 2.7695 9.26532H2.37598C1.94522 9.26532 1.59473 9.61581 1.59473 10.0466V10.8278C1.59473 11.2586 1.94522 11.6091 2.37598 11.6091H2.7695C3.50787 11.6091 4.16858 12.0536 4.45255 12.7413L4.45834 12.755C4.74292 13.4403 4.59018 14.222 4.06802 14.7441L3.7897 15.0223C3.64215 15.1699 3.56097 15.3661 3.56097 15.5748C3.56097 15.7834 3.64215 15.9796 3.7897 16.1272L4.34222 16.6797C4.64679 16.9843 5.1424 16.9843 5.44711 16.6797L5.72528 16.4014C6.24713 15.8797 7.02823 15.7267 7.71564 16.0117L7.72571 16.0158C8.41602 16.3008 8.86035 16.9615 8.86035 17.6999V18.0934C8.86035 18.5242 9.21085 18.8747 9.6416 18.8747H10.4229V17.3122C10.4229 16.8807 10.7726 16.5309 11.2041 16.5309C11.6356 16.5309 11.9854 16.8807 11.9854 17.3122ZM18.665 9.07001C18.2006 9.07001 17.7904 9.30194 17.5434 9.65594H11.4664C11.2194 9.30194 10.8092 9.07001 10.3447 9.07001C9.58972 9.07001 8.97754 9.68219 8.97754 10.4372C8.97754 11.1922 9.58972 11.8044 10.3447 11.8044C10.8092 11.8044 11.2194 11.5724 11.4664 11.2184H17.5434C17.7904 11.5724 18.2006 11.8044 18.665 11.8044C19.42 11.8044 20.0322 11.1922 20.0322 10.4372C20.0322 9.68219 19.42 9.07001 18.665 9.07001ZM18.665 15.4763C18.5675 15.4763 18.4725 15.4866 18.3808 15.506L16.4792 13.6309C16.333 13.4868 16.136 13.4059 15.9307 13.4059H10.0322C8.39526 13.4059 7.06348 12.0742 7.06348 10.4372C7.06348 8.80023 8.39526 7.46844 10.0322 7.46844H15.9307C16.1379 7.46844 16.3365 7.3862 16.483 7.23972L18.3911 5.3316C18.4796 5.34961 18.5712 5.35907 18.665 5.35907C19.42 5.35907 20.0322 4.74704 20.0322 3.99188C20.0322 3.23688 19.42 2.62469 18.665 2.62469C17.91 2.62469 17.2979 3.23688 17.2979 3.99188C17.2979 4.06253 17.3032 4.13181 17.3136 4.19955L15.607 5.90594H10.0322C7.53375 5.90594 5.50098 7.93857 5.50098 10.4372C5.50098 12.9358 7.53375 14.9684 10.0322 14.9684H15.6102L17.3122 16.6468C17.3029 16.711 17.2979 16.7766 17.2979 16.8434C17.2979 17.5984 17.91 18.2106 18.665 18.2106C19.42 18.2106 20.0322 17.5984 20.0322 16.8434C20.0322 16.0884 19.42 15.4763 18.665 15.4763Z" fill="#E52E92"/>
</g>
<defs>
<clipPath id="clip0_201_1521">
<rect width="20" height="20" fill="white" transform="translate(0.0322266 0.437195)"/>
</clipPath>
</defs>
</svg>
