<svg width="20" height="21" viewBox="0 0 20 21" fill="none" xmlns="http://www.w3.org/2000/svg">
<g id="vuesax/linear/gallery">
<g id="gallery">
<path id="Vector" d="M7.50008 19.1459H12.5001C16.6667 19.1459 18.3334 17.4792 18.3334 13.3125V8.31252C18.3334 4.14585 16.6667 2.47919 12.5001 2.47919H7.50008C3.33341 2.47919 1.66675 4.14585 1.66675 8.31252V13.3125C1.66675 17.4792 3.33341 19.1459 7.50008 19.1459Z" stroke="#E52E92" strokeWidth="1.5" stroke-linecap="round" stroke-linejoin="round"/>
<path id="Vector_2" d="M7.49992 9.14583C8.42039 9.14583 9.16659 8.39964 9.16659 7.47917C9.16659 6.55869 8.42039 5.8125 7.49992 5.8125C6.57944 5.8125 5.83325 6.55869 5.83325 7.47917C5.83325 8.39964 6.57944 9.14583 7.49992 9.14583Z" stroke="#E52E92" strokeWidth="1.5" stroke-linecap="round" stroke-linejoin="round"/>
<path id="Vector_3" d="M2.2251 16.6042L6.33343 13.8458C6.99176 13.4042 7.94176 13.4542 8.53343 13.9625L8.80843 14.2042C9.45843 14.7625 10.5084 14.7625 11.1584 14.2042L14.6251 11.2292C15.2751 10.6708 16.3251 10.6708 16.9751 11.2292L18.3334 12.3958" stroke="#E52E92" strokeWidth="1.5" stroke-linecap="round" stroke-linejoin="round"/>
</g>
</g>
</svg>
