<svg width="21" height="21" viewBox="0 0 21 21" fill="none" xmlns="http://www.w3.org/2000/svg">
<g id="globe">
<path id="combo shape" fill-rule="evenodd" clip-rule="evenodd" d="M8.2297 2.84923C7.54281 4.73819 7.10329 7.39747 7.10329 10.3711C7.10329 10.7507 7.11045 11.1251 7.12437 11.4935C8.14954 11.5765 9.2325 11.6211 10.3533 11.6211C11.4741 11.6211 12.557 11.5765 13.5822 11.4935C13.5961 11.1251 13.6033 10.7507 13.6033 10.3711C13.6033 7.39747 13.1638 4.73819 12.4769 2.84923C12.1323 1.90166 11.7397 1.18761 11.3416 0.72447C11.2229 0.586438 11.1098 0.477217 11.0029 0.391856C10.7881 0.378085 10.5715 0.371094 10.3533 0.371094C10.135 0.371094 9.91843 0.378085 9.70367 0.391856C9.59676 0.477217 9.48369 0.586438 9.36502 0.72447C8.96684 1.18761 8.57427 1.90166 8.2297 2.84923ZM13.4848 13.0057C12.4823 13.0811 11.433 13.1211 10.3533 13.1211C9.27355 13.1211 8.22423 13.0811 7.22181 13.0057C7.39621 14.9037 7.75351 16.5834 8.2297 17.893C8.57427 18.8405 8.96684 19.5546 9.36502 20.0177C9.48369 20.1557 9.59676 20.265 9.70367 20.3503C9.91843 20.3641 10.135 20.3711 10.3533 20.3711C10.5715 20.3711 10.7881 20.3641 11.0029 20.3503C11.1098 20.265 11.2229 20.1557 11.3416 20.0177C11.7397 19.5546 12.1323 18.8405 12.4769 17.893C12.9531 16.5834 13.3104 14.9037 13.4848 13.0057ZM5.6182 11.3391C5.60832 11.0197 5.60329 10.6968 5.60329 10.3711C5.60329 7.26959 6.05919 4.42887 6.82001 2.33661C7.02668 1.76828 7.26008 1.24336 7.52015 0.778094C3.47572 1.97067 0.497847 5.65135 0.358398 10.0483C1.23534 10.4464 2.44549 10.8041 3.92025 11.0777C4.45727 11.1773 5.02482 11.2649 5.6182 11.3391ZM0.441183 11.7028C1.35777 12.0447 2.44601 12.3298 3.64667 12.5525C4.29562 12.6729 4.98365 12.7762 5.70357 12.8604C5.87708 14.9783 6.26841 16.8887 6.82001 18.4056C7.02668 18.9739 7.26008 19.4988 7.52015 19.9641C3.78926 18.864 0.965976 15.6466 0.441183 11.7028ZM15.003 12.8604C15.7229 12.7762 16.411 12.6729 17.0599 12.5525C18.2606 12.3298 19.3488 12.0447 20.2654 11.7028C19.7406 15.6466 16.9173 18.864 13.1864 19.9641C13.4465 19.4988 13.6799 18.9739 13.8866 18.4056C14.4382 16.8887 14.8295 14.9783 15.003 12.8604ZM20.3482 10.0483C19.4712 10.4464 18.2611 10.8041 16.7863 11.0777C16.2493 11.1773 15.6818 11.2649 15.0884 11.3391C15.0983 11.0197 15.1033 10.6968 15.1033 10.3711C15.1033 7.26959 14.6474 4.42887 13.8866 2.33661C13.6799 1.76829 13.4465 1.24336 13.1864 0.778098C17.2309 1.97067 20.2087 5.65135 20.3482 10.0483Z" fill="#28282A"/>
</g>
</svg>
