<svg width="464" height="91" viewBox="0 0 464 91" fill="none" xmlns="http://www.w3.org/2000/svg">
<path d="M102.936 77.0221V31.9844H112.866V48.6759H134.11V31.9844H144.041V77.0221H134.11V57.0256H112.866V77.0221H102.936Z" fill="#281A57"/>
<path d="M197.063 31.9844L179.203 56.4695V77.0221H169.273V56.4695L151.342 31.9844H163.616L174.58 47.6431L185.48 31.9844H197.063Z" fill="#281A57"/>
<path d="M316.914 31.9844H359.394V40.5327H343.115V77.0141H333.256V40.5327H316.914V31.9844Z" fill="#E52F92"/>
<path d="M394.772 57.7803H378.152V68.5373H407.396V77.0221H368.293V31.9844H405.807V40.5327H378.152V49.2876H394.772V57.7724V57.7803Z" fill="#E52F92"/>
<path d="M427.249 51.5677L447.873 31.9844H460.29L441.533 49.5736L463.675 77.0221H451.194L434.502 56.0564L427.265 62.8807V77.0221H417.334V31.9844H427.265V51.5677H427.249Z" fill="#E52F92"/>
<path d="M237.548 58.8767C243.062 56.4615 246.653 51.9808 246.653 46.1892C246.653 42.6063 245.27 39.3648 242.927 36.8782C240.027 33.8434 235.824 31.9844 229.413 31.9844H204.451V40.3262H229.763C231.558 40.3262 233.552 40.5327 235.141 42.2567C236.174 43.2895 236.73 44.6718 236.73 46.1892C236.73 49.6372 233.902 52.1159 230.454 52.1159H204.451V77.0141H214.31V60.4656H227.689L236.793 77.0141H248.107L237.556 58.8767H237.548Z" fill="#281A57"/>
<path d="M281.331 31.9844H272.854L251.952 77.0221H262.367L266.435 67.5045L269.819 59.7108L276.644 43.782H277.057L283.889 59.7108L287.266 67.5045L291.405 77.0221H302.233L281.331 31.9844Z" fill="#281A57"/>
<path d="M8.92875 32.0845C7.04589 33.1729 7.04589 35.8978 8.92875 36.9862L23.0621 45.1453C23.9598 45.6617 24.516 46.623 24.516 47.6637V66.0236C24.516 67.5808 25.7792 68.8439 27.3363 68.8439C28.8934 68.8439 30.1566 67.5808 30.1566 66.0236V44.7004C30.1566 43.469 29.4972 42.3329 28.4326 41.7133L11.765 32.0845C10.8911 31.576 9.81059 31.576 8.93669 32.0845H8.92875Z" fill="#E52F92"/>
<path d="M46.283 37.0392V84.786C46.283 86.3749 45.6395 87.8208 44.5988 88.8616C43.558 89.9023 42.1121 90.5458 40.5232 90.5458C37.3374 90.5458 34.7555 87.9638 34.7555 84.7781V43.0929C34.7555 40.9717 33.6273 39.0095 31.7842 37.9528L2.88983 21.2693C-0.963278 19.0448 -0.963278 13.4756 2.88983 11.2512C4.67736 10.2184 6.88595 10.2184 8.67348 11.2512L41.3971 30.1433L42.7556 30.9298C44.9404 32.193 46.283 34.5208 46.283 37.0392Z" fill="#28225C"/>
<path d="M46.2843 37.0365V80.5568C45.045 80.3661 43.9327 79.7862 43.0827 78.9361C42.0419 77.8953 41.3984 76.4494 41.3984 74.8605V30.1406L42.7569 30.9271C44.9417 32.1903 46.2843 34.5181 46.2843 37.0365Z" fill="#993192"/>
<path d="M87.1804 1.32147C91.0335 3.54595 91.0335 9.11507 87.1804 11.3395L58.2861 28.0231C56.4509 29.0877 55.3148 31.042 55.3148 33.1632V74.8563C55.3148 78.042 52.7328 80.624 49.547 80.624C46.3613 80.624 43.7793 78.042 43.7793 74.8563V27.1095C43.7793 24.5911 45.1219 22.2633 47.3067 21.0001L81.3888 1.32147C83.1764 0.288677 85.3849 0.288677 87.1725 1.32147H87.1804Z" fill="#E52F92"/>
<path d="M82.2484 22.8813C84.1312 23.9697 84.1312 26.6947 82.2484 27.7831L68.115 35.9422C67.2173 36.4586 66.6611 37.4199 66.6611 38.4606V56.8205C66.6611 58.3776 65.398 59.6408 63.8408 59.6408C62.2837 59.6408 61.0205 58.3776 61.0205 56.8205V35.4973C61.0205 34.2659 61.6799 33.1298 62.7445 32.5101L79.4122 22.8813C80.2861 22.3729 81.3665 22.3729 82.2404 22.8813H82.2484Z" fill="#28225C"/>
</svg>
