<svg width="32" height="32" viewBox="0 0 32 32" fill="none" xmlns="http://www.w3.org/2000/svg">
<g id="About us">
<g id="Ellipse 1618">
<circle cx="16" cy="16" r="16" fill="white"/>
<circle cx="16" cy="16" r="15.5" stroke="black" stroke-opacity="0.12"/>
</g>
<g id="Group 1">
<path id="Vector" fill-rule="evenodd" clip-rule="evenodd" d="M14.0762 7.08659L16 6L24.8552 10.9995L22.9314 12.0861L14.0762 7.08659Z" fill="#EC008C"/>
<path id="Vector_2" fill-rule="evenodd" clip-rule="evenodd" d="M12.1523 8.17252L14.0761 7.08594L20.0456 10.4556L18.1218 11.5421L12.1523 8.17252Z" fill="#C40075"/>
<path id="Vector_3" fill-rule="evenodd" clip-rule="evenodd" d="M10.2285 9.25646L12.1523 8.17188L14.0761 9.25646L12.1523 10.3431L10.2285 9.25646Z" fill="#9E005D"/>
<path id="Vector_4" fill-rule="evenodd" clip-rule="evenodd" d="M13.1133 11.9772L15.0371 10.8906L20.0447 13.7189L18.1209 14.8055L13.1133 11.9772Z" fill="#9E005D"/>
<path id="Vector_5" fill-rule="evenodd" clip-rule="evenodd" d="M18.1211 12.6299L20.0449 11.5433L21.9687 12.6299L24.8544 11V13.1732L21.9687 14.8031L18.1211 12.6299Z" fill="#C40075"/>
<path id="Vector_6" fill-rule="evenodd" clip-rule="evenodd" d="M24.8552 18.8281V21.0013L16 26.0008V23.8296L24.8552 18.8281Z" fill="#EC008C"/>
<path id="Vector_7" fill-rule="evenodd" clip-rule="evenodd" d="M24.8543 16.6562V18.8274L18.8848 22.199V20.0259L24.8543 16.6562Z" fill="#C40075"/>
<path id="Vector_8" fill-rule="evenodd" clip-rule="evenodd" d="M24.8554 14.4844V16.6575L22.9316 17.7421V15.571L24.8554 14.4844Z" fill="#9E005D"/>
<path id="Vector_9" fill-rule="evenodd" clip-rule="evenodd" d="M21.0076 15.5703V17.7415L16 20.5698V18.3966L21.0076 15.5703Z" fill="#9E005D"/>
<path id="Vector_10" fill-rule="evenodd" clip-rule="evenodd" d="M17.9238 19.4844V21.6575L16 22.7441V26.0019L14.0762 24.9153V21.6575L17.9238 19.4844Z" fill="#C40075"/>
<path id="Vector_11" fill-rule="evenodd" clip-rule="evenodd" d="M9.06833 22.0876L7.14453 21.001V11L9.06833 12.0866V22.0876Z" fill="#EC008C"/>
<path id="Vector_12" fill-rule="evenodd" clip-rule="evenodd" d="M10.9922 23.1716L9.06836 22.085V15.3438L10.9922 16.4283V23.1716Z" fill="#C40075"/>
<path id="Vector_13" fill-rule="evenodd" clip-rule="evenodd" d="M12.916 24.2578L10.9922 23.1732V21L12.916 22.0866V24.2578Z" fill="#9E005D"/>
<path id="Vector_14" fill-rule="evenodd" clip-rule="evenodd" d="M13.8789 20.46L11.9551 19.3734V13.7188L13.8789 14.8053V20.46Z" fill="#9E005D"/>
<path id="Vector_15" fill-rule="evenodd" clip-rule="evenodd" d="M11.954 15.8903L10.0302 14.8037V12.6305L7.14453 11.0006L9.06833 9.91406L11.954 11.5439V15.8903Z" fill="#C40075"/>
</g>
</g>
</svg>
