<svg width="32" height="32" viewBox="0 0 32 32" fill="none" xmlns="http://www.w3.org/2000/svg">
<circle cx="16" cy="16" r="16" fill="white"/>
<circle cx="16" cy="16" r="15.5" stroke="black" stroke-opacity="0.12"/>
<g clip-path="url(#clip0_1321_26836)">
<path fill-rule="evenodd" clip-rule="evenodd" d="M7.85376 21.5935C7.1762 21.2026 7 20.8951 7 20.1134V19.1459H10.2869C10.8251 19.1459 11.1967 19.2757 11.5683 19.6473L12.7376 20.8166C13.1701 21.2491 13.5577 21.334 14.16 21.334H20.2068C20.8107 21.334 21.3008 20.8438 21.3008 20.2399C21.3008 19.6361 20.8107 19.1459 20.2068 19.1459C18.8084 19.1459 16.8142 19.1459 15.4142 19.1459C14.9241 19.1459 14.6598 19.0242 14.3634 18.7295C14.0559 18.4219 13.9181 18.2842 13.6106 17.9766C13.1237 17.4897 13.1237 17.0844 13.6106 16.5975C14.2465 15.9616 14.6806 15.5275 15.2701 14.938C15.3598 14.8483 15.3726 14.733 15.3453 14.6577C15.3149 14.5728 15.2092 14.5039 15.0698 14.5039H7V11.885C7 11.1033 7.1778 10.7958 7.85376 10.4049L14.9785 6.29313C15.6561 5.90229 16.0101 5.90229 16.686 6.29313L23.8108 10.4065C24.4884 10.7974 24.6646 11.1049 24.6646 11.8866V12.8541H21.3777C20.8395 12.8541 20.4679 12.7243 20.0963 12.3527L18.927 11.1834C18.4945 10.7509 18.1068 10.666 17.5046 10.666H11.461C10.8571 10.666 10.367 11.1562 10.367 11.7601C10.367 12.3639 10.8571 12.8541 11.461 12.8541H16.2536C16.7437 12.8541 17.008 12.9758 17.3043 13.2705C17.6119 13.5781 17.7496 13.7158 18.0556 14.0218C18.5425 14.5087 18.5425 14.914 18.0556 15.4009C17.4197 16.0368 16.9856 16.4709 16.3961 17.0604C16.3064 17.1501 16.2936 17.2654 16.3208 17.3407C16.3513 17.4256 16.457 17.4945 16.5963 17.4945H24.6662V20.1134C24.6662 20.8951 24.4884 21.2026 23.8124 21.5935L16.6876 25.7069C16.0101 26.0977 15.6561 26.0977 14.9801 25.7069L7.85376 21.5935Z" fill="#74B743"/>
</g>
<defs>
<clipPath id="clip0_1321_26836">
<rect width="17.6662" height="20" fill="white" transform="translate(7 6)"/>
</clipPath>
</defs>
</svg>
