<svg width="20" height="21" viewBox="0 0 20 21" fill="none" xmlns="http://www.w3.org/2000/svg">
<g id="vuesax/linear/information">
<g id="information">
<path id="Vector" d="M8.9584 2.85416C9.54173 2.3625 10.4834 2.3625 11.0501 2.85416L12.3667 3.97916C12.6167 4.1875 13.0917 4.3625 13.4251 4.3625H14.8417C15.7251 4.3625 16.4501 5.0875 16.4501 5.97083V7.3875C16.4501 7.72083 16.6251 8.1875 16.8334 8.4375L17.9584 9.75416C18.4501 10.3375 18.4501 11.2792 17.9584 11.8458L16.8334 13.1625C16.6251 13.4125 16.4501 13.8792 16.4501 14.2125V15.6292C16.4501 16.5125 15.7251 17.2375 14.8417 17.2375H13.4251C13.0917 17.2375 12.6251 17.4125 12.3751 17.6208L11.0584 18.7458C10.4751 19.2375 9.5334 19.2375 8.96673 18.7458L7.65007 17.6208C7.40007 17.4125 6.92507 17.2375 6.60007 17.2375H5.14173C4.2584 17.2375 3.5334 16.5125 3.5334 15.6292V14.2042C3.5334 13.8792 3.36673 13.4042 3.1584 13.1625L2.0334 11.8375C1.55007 11.2625 1.55007 10.3292 2.0334 9.75416L3.1584 8.42916C3.36673 8.17916 3.5334 7.7125 3.5334 7.3875V5.97916C3.5334 5.09583 4.2584 4.37083 5.14173 4.37083H6.5834C6.91673 4.37083 7.3834 4.19583 7.6334 3.9875L8.9584 2.85416Z" stroke="#E52E92" strokeWidth="1.5" stroke-linecap="round" stroke-linejoin="round"/>
<path id="Vector_2" d="M10 7.58752V11.6125" stroke="#E52E92" strokeWidth="1.5" stroke-linecap="round" stroke-linejoin="round"/>
<path id="Vector_3" d="M9.99536 14.1458H10.0028" stroke="#E52E92" strokeWidth="2" stroke-linecap="round" stroke-linejoin="round"/>
</g>
</g>
</svg>
