<svg width="24" height="25" viewBox="0 0 24 25" fill="none" xmlns="http://www.w3.org/2000/svg">
<g id="Frame" clip-path="url(#clip0_201_2915)">
<path id="Vector" d="M12 0.94458C5.3736 0.94458 0 6.31818 0 12.9446C0 19.571 5.3736 24.9446 12 24.9446C18.6264 24.9446 24 19.571 24 12.9446C24 6.31818 18.6264 0.94458 12 0.94458ZM8.51294 19.0852H5.59039V10.2927H8.51294V19.0852ZM7.05176 9.09204H7.03271C6.052 9.09204 5.41772 8.41693 5.41772 7.57318C5.41772 6.71039 6.07141 6.05396 7.07117 6.05396C8.07092 6.05396 8.68616 6.71039 8.7052 7.57318C8.7052 8.41693 8.07092 9.09204 7.05176 9.09204ZM19.051 19.0852H16.1288V14.3814C16.1288 13.1993 15.7057 12.3931 14.6483 12.3931C13.8409 12.3931 13.3601 12.9369 13.1488 13.4619C13.0715 13.6497 13.0527 13.9123 13.0527 14.175V19.0852H10.1303C10.1303 19.0852 10.1686 11.1176 10.1303 10.2927H13.0527V11.5376C13.441 10.9385 14.1359 10.0863 15.6865 10.0863C17.6093 10.0863 19.051 11.343 19.051 14.0436V19.0852Z" fill="#28282A"/>
</g>
<defs>
<clipPath id="clip0_201_2915">
<rect width="24" height="24" fill="white" transform="translate(0 0.94458)"/>
</clipPath>
</defs>
</svg>
