<svg width="21" height="21" viewBox="0 0 21 21" fill="none" xmlns="http://www.w3.org/2000/svg">
<g id="vuesax/outline/location">
<g id="location">
<path id="Vector" d="M10.0687 12.5174C8.29375 12.5174 6.84375 11.0757 6.84375 9.29235C6.84375 7.50902 8.29375 6.07568 10.0687 6.07568C11.8438 6.07568 13.2937 7.51735 13.2937 9.30068C13.2937 11.084 11.8438 12.5174 10.0687 12.5174ZM10.0687 7.32568C8.98542 7.32568 8.09375 8.20902 8.09375 9.30068C8.09375 10.3924 8.97708 11.2757 10.0687 11.2757C11.1604 11.2757 12.0437 10.3924 12.0437 9.30068C12.0437 8.20902 11.1521 7.32568 10.0687 7.32568Z" fill="#292D32"/>
<path id="Vector_2" d="M10.0688 19.6757C8.83542 19.6757 7.59375 19.2091 6.62708 18.2841C4.16875 15.9174 1.45208 12.1424 2.47708 7.65073C3.40208 3.57573 6.96042 1.75073 10.0688 1.75073C10.0688 1.75073 10.0688 1.75073 10.0771 1.75073C13.1854 1.75073 16.7438 3.57573 17.6688 7.65907C18.6854 12.1507 15.9688 15.9174 13.5104 18.2841C12.5438 19.2091 11.3021 19.6757 10.0688 19.6757ZM10.0688 3.00073C7.64375 3.00073 4.52708 4.2924 3.70208 7.92573C2.80208 11.8507 5.26875 15.2341 7.50208 17.3757C8.94375 18.7674 11.2021 18.7674 12.6438 17.3757C14.8688 15.2341 17.3354 11.8507 16.4521 7.92573C15.6188 4.2924 12.4938 3.00073 10.0688 3.00073Z" fill="#292D32"/>
</g>
</g>
</svg>
