<svg width="21" height="21" viewBox="0 0 21 21" fill="none" xmlns="http://www.w3.org/2000/svg">
<g id="vuesax/outline/sms">
<g id="sms">
<path id="Vector" d="M14.2354 18.4174H5.90202C2.86035 18.4174 1.11035 16.6674 1.11035 13.6257V7.7924C1.11035 4.75073 2.86035 3.00073 5.90202 3.00073H14.2354C17.277 3.00073 19.027 4.75073 19.027 7.7924V13.6257C19.027 16.6674 17.277 18.4174 14.2354 18.4174ZM5.90202 4.25073C3.51868 4.25073 2.36035 5.40907 2.36035 7.7924V13.6257C2.36035 16.0091 3.51868 17.1674 5.90202 17.1674H14.2354C16.6187 17.1674 17.777 16.0091 17.777 13.6257V7.7924C17.777 5.40907 16.6187 4.25073 14.2354 4.25073H5.90202Z" fill="#292D32"/>
<path id="Vector_2" d="M10.0683 11.434C9.36834 11.434 8.66001 11.2173 8.11834 10.7756L5.51 8.69229C5.24334 8.47563 5.19334 8.08396 5.41001 7.81729C5.62667 7.55062 6.01834 7.50063 6.28501 7.7173L8.89333 9.80063C9.52667 10.309 10.6017 10.309 11.235 9.80063L13.8433 7.7173C14.11 7.50063 14.51 7.54229 14.7183 7.81729C14.935 8.08396 14.8933 8.48396 14.6183 8.69229L12.01 10.7756C11.4767 11.2173 10.7683 11.434 10.0683 11.434Z" fill="#292D32"/>
</g>
</g>
</svg>
