<svg width="24" height="25" viewBox="0 0 24 25" fill="none" xmlns="http://www.w3.org/2000/svg">
<g id="youtube.svg">
<path id="Vector" d="M22.9031 7.44804C22.6414 6.46262 21.8703 5.68654 20.8913 5.42316C19.1167 4.94458 12.0008 4.94458 12.0008 4.94458C12.0008 4.94458 4.88501 4.94458 3.11038 5.42316C2.13134 5.68658 1.36026 6.46262 1.09855 7.44804C0.623047 9.23416 0.623047 12.9607 0.623047 12.9607C0.623047 12.9607 0.623047 16.6873 1.09855 18.4735C1.36026 19.4589 2.13134 20.2026 3.11038 20.466C4.88501 20.9446 12.0008 20.9446 12.0008 20.9446C12.0008 20.9446 19.1167 20.9446 20.8913 20.466C21.8703 20.2026 22.6414 19.4589 22.9031 18.4735C23.3786 16.6873 23.3786 12.9607 23.3786 12.9607C23.3786 12.9607 23.3786 9.23416 22.9031 7.44804ZM9.67355 16.3442V9.57729L15.621 12.9608L9.67355 16.3442Z" fill="#28282A"/>
</g>
</svg>
